<?xml version="1.0" encoding="UTF-8"?>
<svg width="16px" height="16px" viewBox="0 0 16 16" version="1.1" xmlns="http://www.w3.org/2000/svg" xmlns:xlink="http://www.w3.org/1999/xlink">
    <!-- Generator: Sketch 56.2 (81672) - https://sketch.com -->
    <title>Artboard</title>
    <desc>Created with Sketch.</desc>
    <g id="Artboard" stroke="none" stroke-width="1" fill="none" fill-rule="evenodd">
        <g id="noun_cookie_3101686" fill="#000000" fill-rule="nonzero">
            <g id="Group">
                <path d="M15.7011733,8.03291234 C15.6887938,7.85478153 15.5436752,7.71673645 15.3688167,7.71675574 C14.8149955,7.75770702 14.2694555,7.56151327 13.8629567,7.1752 C13.5451755,6.79807745 13.3727556,6.31566662 13.37793,5.81815149 C13.3827153,5.72251013 13.347856,5.62922979 13.2818926,5.56116465 C13.2159292,5.49309952 13.1249565,5.45653847 13.0312633,5.46043915 C12.7212945,5.48959672 12.4145673,5.37726807 12.1933733,5.15358979 C11.5989733,4.53756596 11.6624467,3.22606298 11.6631,3.21276596 C11.6684339,3.11458519 11.6319927,3.01883486 11.5631348,2.95010478 C11.4942769,2.8813747 11.3997113,2.8463612 11.3037233,2.85405617 C10.2448067,2.94281872 9.52084667,2.75132936 9.21843667,2.30585191 C8.77084667,1.64528 9.26238333,0.554188936 9.26987,0.537899574 C9.31822863,0.4334751 9.31145284,0.311133304 9.25187264,0.212944015 C9.19229243,0.114754727 9.08803319,0.0541087238 8.97494667,0.0518604255 C2.72363333,-0.0578451064 0.3903,3.87268085 0.29785,7.28723404 C0.190756667,11.2247353 2.91733333,15.5804528 7.50879,15.7506655 C7.67871,15.7569793 7.84613556,15.7603064 8.01106667,15.7603064 C10.4960933,15.7603064 12.43099,15.0458791 13.7669267,13.6336443 C15.9072267,11.3706791 15.7106133,8.16821787 15.7011733,8.03291234 Z M13.2828767,13.1648953 C11.9951167,14.5232715 10.05957,15.1632306 7.53287667,15.0704783 C3.34961,14.9149038 0.865876667,10.919217 0.96421,7.30585191 C1.05013,4.14361872 3.083,0.808510638 8.49479333,0.73138383 C8.35254,1.24002723 8.23730333,2.05153021 8.66862,2.69082553 C9.0778,3.29720851 9.86718667,3.59241872 10.9986967,3.55285787 C11.0221367,4.08145021 11.1477867,5.03822979 11.7171233,5.62965447 C11.9857917,5.91193422 12.3431283,6.08869668 12.7265633,6.12899064 C12.7774372,6.69086706 13.0050365,7.22082944 13.3753267,7.63962894 C13.8186911,8.09356624 14.4136827,8.35956941 15.0410167,8.38430979 C15.03125,9.20312511 14.8557933,11.5059847 13.2828767,13.1648953 Z" id="Shape"></path>
                <path d="M6.71842333,4.30219574 C6.71842333,3.5361636 6.26659238,2.84555921 5.57361541,2.55241076 C4.88063845,2.25926231 4.08298699,2.42130048 3.55260519,2.962967 C3.02222338,3.50463353 2.86356102,4.31925629 3.1506022,5.02697744 C3.43764339,5.7346986 4.11386019,6.19614298 4.86393333,6.19614298 C5.88762819,6.19488245 6.71718907,5.34767135 6.71842333,4.30219574 L6.71842333,4.30219574 Z M3.67609,4.30219574 C3.67609,3.81154246 3.96549247,3.36920129 4.40935277,3.18143545 C4.85321307,2.99366961 5.36411904,3.09745642 5.70383578,3.4444002 C6.04355252,3.79134398 6.14517854,4.31312 5.96132573,4.76642466 C5.77747293,5.21972932 5.34434801,5.51529191 4.86391667,5.51529191 C4.20821889,5.51451151 3.67686345,4.97184454 3.67609,4.30219574 L3.67609,4.30219574 Z" id="Shape"></path>
                <path d="M8.83561333,5.29820596 C8.44444785,5.29820596 8.09179836,5.53884956 7.94210518,5.90792822 C7.79241201,6.27700688 7.87515477,6.70183527 8.15175053,6.98431605 C8.4283463,7.26679683 8.84432409,7.35130007 9.20571362,7.19842194 C9.56710314,7.04554381 9.80273333,6.68539113 9.80273333,6.28590298 C9.80207949,5.74068981 9.3694679,5.29887371 8.83561333,5.29820596 Z M8.83561333,6.59275234 C8.71408965,6.59275234 8.60453123,6.51799314 8.55802519,6.4033315 C8.51151916,6.28866987 8.53722413,6.15668793 8.62315388,6.06892892 C8.70908362,5.98116991 8.83831565,5.95491656 8.95058902,6.00241081 C9.06286239,6.04990506 9.13606667,6.16179369 9.13606667,6.28590298 C9.13589213,6.45529599 9.00147732,6.59257221 8.83561333,6.59275234 Z" id="Shape"></path>
                <path d="M5.79329333,7.26462638 C5.20909801,7.26471852 4.7355871,7.748453 4.73567669,8.34507801 C4.73576629,8.94170301 5.20942247,9.42528914 5.79361779,9.42519827 C6.3778131,9.4251074 6.85132503,8.94137394 6.85123667,8.34474894 C6.85069063,7.74831595 6.37730078,7.26500173 5.79329333,7.26462638 L5.79329333,7.26462638 Z M5.79329333,8.74434723 C5.57732952,8.74425511 5.40231269,8.56541443 5.40234337,8.34485563 C5.40237405,8.12429682 5.57744064,7.94550694 5.79340447,7.94547749 C6.0093683,7.94544803 6.18448163,8.12419015 6.18457,8.34474894 C6.1844119,8.5653754 6.00932341,8.74418765 5.79329333,8.74434723 L5.79329333,8.74434723 Z" id="Shape"></path>
            </g>
        </g>
    </g>
</svg>